<svg width="72" height="64" viewBox="0 0 72 64" fill="none" xmlns="http://www.w3.org/2000/svg">
<g filter="url(#filter0_f_599_34365)">
<path d="M11.4443 16.9168C11.4443 13.9015 13.8888 11.457 16.9041 11.457H24.9142C26.0691 11.457 27.1943 11.8233 28.1279 12.5031L30.6154 14.3143C31.5491 14.9941 32.6743 15.3604 33.8292 15.3604H55.276C58.2914 15.3604 60.7358 17.8048 60.7358 20.8201V47.5399C60.7358 50.5552 58.2914 52.9996 55.276 52.9996H16.9041C13.8888 52.9996 11.4443 50.5552 11.4443 47.5399V16.9168Z" fill="#3A6CE7" fill-opacity="0.45"/>
</g>
<g filter="url(#filter1_f_599_34365)">
<path d="M9.72168 13.0428C9.72168 10.0274 12.1661 7.58301 15.1815 7.58301H24.2532C25.4104 7.58301 26.5376 7.95065 27.4722 8.63287L30.331 10.7196C31.2656 11.4018 32.3928 11.7695 33.55 11.7695H56.9973C60.0127 11.7695 62.4571 14.2139 62.4571 17.2293V46.6793C62.4571 49.6946 60.0127 52.1391 56.9973 52.1391H15.1814C12.1661 52.1391 9.72168 49.6946 9.72168 46.6793V13.0428Z" fill="#3A6CE7" fill-opacity="0.5"/>
</g>
<mask id="mask0_599_34365" style="mask-type:alpha" maskUnits="userSpaceOnUse" x="8" y="5" width="57" height="48">
<path d="M8 10.4598C8 7.44442 10.4444 5 13.4598 5H21.8229C24.133 5 26.3836 5.73263 28.251 7.09252L30.0507 8.40313C30.9844 9.08308 32.1097 9.44939 33.2647 9.44939H58.7196C61.7349 9.44939 64.1794 11.8938 64.1794 14.9092V46.8945C64.1794 49.9098 61.7349 52.3543 58.7196 52.3543H13.4598C10.4444 52.3543 8 49.9098 8 46.8945V10.4598Z" fill="url(#paint0_linear_599_34365)"/>
</mask>
<g mask="url(#mask0_599_34365)">
<g filter="url(#filter2_i_599_34365)">
<path d="M8 10.4598C8 7.44442 10.4444 5 13.4598 5H21.8229C24.133 5 26.3836 5.73263 28.251 7.09252L30.0507 8.40313C30.9844 9.08308 32.1097 9.44939 33.2647 9.44939H58.7196C61.7349 9.44939 64.1794 11.8938 64.1794 14.9092V46.8945C64.1794 49.9098 61.7349 52.3543 58.7196 52.3543H13.4598C10.4444 52.3543 8 49.9098 8 46.8945V10.4598Z" fill="url(#paint1_linear_599_34365)"/>
</g>
<path d="M21.8232 4.89062C24.1563 4.8907 26.4295 5.6305 28.3154 7.00391L30.1152 8.31445C31.0302 8.98079 32.1327 9.33983 33.2646 9.33984H58.7197C61.7953 9.33991 64.2881 11.8336 64.2881 14.9092V46.8945C64.2881 49.9701 61.7953 52.4638 58.7197 52.4639H13.46C10.3843 52.4639 7.89065 49.9702 7.89062 46.8945V10.46C7.89062 7.38431 10.3843 4.89062 13.46 4.89062H21.8232Z" stroke="white" stroke-width="0.218391"/>
<g filter="url(#filter3_f_599_34365)">
<rect x="8" y="11.833" width="56.1794" height="38.4555" rx="2.62069" fill="#3A6CE7"/>
</g>
<g filter="url(#filter4_diiii_599_34365)">
<rect x="8" y="12.9453" width="56.1794" height="39.4089" rx="5.45977" fill="url(#paint2_linear_599_34365)"/>
</g>
</g>
<defs>
<filter id="filter0_f_599_34365" x="0.524795" y="0.53749" width="71.1301" height="63.3821" filterUnits="userSpaceOnUse" color-interpolation-filters="sRGB">
<feFlood flood-opacity="0" result="BackgroundImageFix"/>
<feBlend mode="normal" in="SourceGraphic" in2="BackgroundImageFix" result="shape"/>
<feGaussianBlur stdDeviation="5.45977" result="effect1_foregroundBlur_599_34365"/>
</filter>
<filter id="filter1_f_599_34365" x="5.35386" y="3.21519" width="61.471" height="53.2913" filterUnits="userSpaceOnUse" color-interpolation-filters="sRGB">
<feFlood flood-opacity="0" result="BackgroundImageFix"/>
<feBlend mode="normal" in="SourceGraphic" in2="BackgroundImageFix" result="shape"/>
<feGaussianBlur stdDeviation="2.18391" result="effect1_foregroundBlur_599_34365"/>
</filter>
<filter id="filter2_i_599_34365" x="7.78125" y="4.78125" width="56.6162" height="48.2278" filterUnits="userSpaceOnUse" color-interpolation-filters="sRGB">
<feFlood flood-opacity="0" result="BackgroundImageFix"/>
<feBlend mode="normal" in="SourceGraphic" in2="BackgroundImageFix" result="shape"/>
<feColorMatrix in="SourceAlpha" type="matrix" values="0 0 0 0 0 0 0 0 0 0 0 0 0 0 0 0 0 0 127 0" result="hardAlpha"/>
<feOffset dy="0.436782"/>
<feGaussianBlur stdDeviation="3.27586"/>
<feComposite in2="hardAlpha" operator="arithmetic" k2="-1" k3="1"/>
<feColorMatrix type="matrix" values="0 0 0 0 0 0 0 0 0 0 0 0 0 0 0 0 0 0 0.5 0"/>
<feBlend mode="soft-light" in2="shape" result="effect1_innerShadow_599_34365"/>
</filter>
<filter id="filter3_f_599_34365" x="-0.735633" y="3.09737" width="73.651" height="55.9263" filterUnits="userSpaceOnUse" color-interpolation-filters="sRGB">
<feFlood flood-opacity="0" result="BackgroundImageFix"/>
<feBlend mode="normal" in="SourceGraphic" in2="BackgroundImageFix" result="shape"/>
<feGaussianBlur stdDeviation="4.36782" result="effect1_foregroundBlur_599_34365"/>
</filter>
<filter id="filter4_diiii_599_34365" x="7.56322" y="11.8534" width="57.0533" height="40.9379" filterUnits="userSpaceOnUse" color-interpolation-filters="sRGB">
<feFlood flood-opacity="0" result="BackgroundImageFix"/>
<feColorMatrix in="SourceAlpha" type="matrix" values="0 0 0 0 0 0 0 0 0 0 0 0 0 0 0 0 0 0 127 0" result="hardAlpha"/>
<feOffset dy="-0.218391"/>
<feGaussianBlur stdDeviation="0.218391"/>
<feColorMatrix type="matrix" values="0 0 0 0 0 0 0 0 0 0 0 0 0 0 0 0 0 0 0.15 0"/>
<feBlend mode="normal" in2="BackgroundImageFix" result="effect1_dropShadow_599_34365"/>
<feBlend mode="normal" in="SourceGraphic" in2="effect1_dropShadow_599_34365" result="shape"/>
<feColorMatrix in="SourceAlpha" type="matrix" values="0 0 0 0 0 0 0 0 0 0 0 0 0 0 0 0 0 0 127 0" result="hardAlpha"/>
<feOffset dy="-1.09195"/>
<feGaussianBlur stdDeviation="8.73563"/>
<feComposite in2="hardAlpha" operator="arithmetic" k2="-1" k3="1"/>
<feColorMatrix type="matrix" values="0 0 0 0 0 0 0 0 0 0 0 0 0 0 0 0 0 0 0.25 0"/>
<feBlend mode="soft-light" in2="shape" result="effect2_innerShadow_599_34365"/>
<feColorMatrix in="SourceAlpha" type="matrix" values="0 0 0 0 0 0 0 0 0 0 0 0 0 0 0 0 0 0 127 0" result="hardAlpha"/>
<feOffset dy="-1.09195"/>
<feGaussianBlur stdDeviation="4.36782"/>
<feComposite in2="hardAlpha" operator="arithmetic" k2="-1" k3="1"/>
<feColorMatrix type="matrix" values="0 0 0 0 0 0 0 0 0 0 0 0 0 0 0 0 0 0 1 0"/>
<feBlend mode="soft-light" in2="effect2_innerShadow_599_34365" result="effect3_innerShadow_599_34365"/>
<feColorMatrix in="SourceAlpha" type="matrix" values="0 0 0 0 0 0 0 0 0 0 0 0 0 0 0 0 0 0 127 0" result="hardAlpha"/>
<feOffset dy="0.655172"/>
<feGaussianBlur stdDeviation="0.218391"/>
<feComposite in2="hardAlpha" operator="arithmetic" k2="-1" k3="1"/>
<feColorMatrix type="matrix" values="0 0 0 0 1 0 0 0 0 1 0 0 0 0 1 0 0 0 0.3 0"/>
<feBlend mode="normal" in2="effect3_innerShadow_599_34365" result="effect4_innerShadow_599_34365"/>
<feColorMatrix in="SourceAlpha" type="matrix" values="0 0 0 0 0 0 0 0 0 0 0 0 0 0 0 0 0 0 127 0" result="hardAlpha"/>
<feOffset dy="-0.873563"/>
<feGaussianBlur stdDeviation="0.655172"/>
<feComposite in2="hardAlpha" operator="arithmetic" k2="-1" k3="1"/>
<feColorMatrix type="matrix" values="0 0 0 0 0 0 0 0 0 0 0 0 0 0 0 0 0 0 0.75 0"/>
<feBlend mode="soft-light" in2="effect4_innerShadow_599_34365" result="effect5_innerShadow_599_34365"/>
</filter>
<linearGradient id="paint0_linear_599_34365" x1="36.0897" y1="5" x2="36.0897" y2="52.3543" gradientUnits="userSpaceOnUse">
<stop stop-color="#57A8DD"/>
<stop offset="1" stop-color="#439CD5"/>
</linearGradient>
<linearGradient id="paint1_linear_599_34365" x1="8" y1="28.8427" x2="64.1794" y2="28.8427" gradientUnits="userSpaceOnUse">
<stop stop-color="#A4BBF4"/>
<stop offset="1" stop-color="#3A6CE7"/>
</linearGradient>
<linearGradient id="paint2_linear_599_34365" x1="8" y1="32.7876" x2="64.1794" y2="32.7876" gradientUnits="userSpaceOnUse">
<stop stop-color="#A4BBF4"/>
<stop offset="1" stop-color="#3A6CE7"/>
</linearGradient>
</defs>
</svg>
