<svg width="371" height="116" viewBox="0 0 371 116" fill="none" xmlns="http://www.w3.org/2000/svg">
<path d="M0 90.5V89.6309C2.0859 89.6309 3.76621 88.9935 5.04093 87.7188C6.31565 86.4441 6.95301 84.7638 6.95301 82.6779V33.1377C6.95301 31.0518 6.31565 29.3715 5.04093 28.0967C3.76621 26.822 2.0859 26.1847 0 26.1847V25.3155H29.0288C33.4903 25.3735 37.3724 26.1557 40.6751 27.6622C44.0357 29.1107 46.6431 31.1387 48.4972 33.7461C50.4093 36.3534 51.3654 39.4243 51.3654 42.9588C51.3654 46.4932 50.4093 49.5931 48.4972 52.2584C46.6431 54.8658 43.9778 56.9228 40.5013 58.4292C37.0827 59.8778 33.0268 60.6021 28.3335 60.6021H20.3376V82.6779C20.3376 84.7638 20.9749 86.4441 22.2496 87.7188C23.5244 88.9935 25.2047 89.6309 27.2906 89.6309H27.4644V90.5H0ZM20.3376 59.4722H25.4654C27.9569 59.4722 30.1007 58.7769 31.8969 57.3863C33.7511 55.9377 35.1706 53.9677 36.1557 51.4762C37.1986 48.9847 37.7201 46.1456 37.7201 42.9588C37.7201 39.772 37.1986 36.9329 36.1557 34.4414C35.1706 31.9499 33.7511 30.0088 31.8969 28.6182C30.0428 27.1697 27.87 26.4454 25.3785 26.4454H20.3376V59.4722ZM51.6892 90.5V89.6309C53.7751 89.6309 55.4555 89.0225 56.7302 87.8057C58.0628 86.531 58.7292 84.8217 58.7292 82.6779V33.1377C58.7292 31.0518 58.0628 29.3715 56.7302 28.0967C55.4555 26.822 53.7751 26.1847 51.6892 26.1847V25.3155H60.5543C63.5094 25.3155 65.7691 24.9969 67.3335 24.3595C68.7821 23.7221 69.796 22.9399 70.3755 22.0129H71.2446V82.6779C71.2446 84.8217 71.8819 86.531 73.1567 87.8057C74.4893 89.0225 76.1986 89.6309 78.2845 89.6309V90.5H51.6892ZM90.3912 91.7168C86.8567 91.7168 84.0176 90.7607 81.8737 88.8487C79.7299 86.9366 78.658 84.4161 78.658 81.2873C78.658 79.9546 78.8897 78.7089 79.3533 77.55C79.8168 76.3332 80.6859 75.1454 81.9606 73.9866C83.2933 72.8278 85.1185 71.64 87.4361 70.4232C89.7538 69.1485 92.8247 67.8158 96.6489 66.4252L104.732 63.4702V56.9517C104.732 53.649 104.21 51.0417 103.167 49.1296C102.124 47.1596 100.676 46.1746 98.8217 46.1746C96.6199 46.2325 94.7368 47.681 93.1724 50.5202C91.6659 53.3593 90.6519 57.2994 90.1304 62.3403L80.7439 56.9517C81.7289 54.5761 83.2354 52.4902 85.2633 50.694C87.2913 48.8978 89.609 47.5072 92.2163 46.5222C94.8817 45.5372 97.6629 45.0447 100.56 45.0447C105.485 45.0447 109.483 46.4353 112.554 49.2165C115.683 51.9398 117.247 55.677 117.247 60.4282V81.3742C117.247 84.7348 118.377 86.4151 120.637 86.4151C121.969 86.4151 123.273 85.6908 124.548 84.2423L125.243 84.8507C123.737 86.8786 121.911 88.53 119.768 89.8047C117.624 91.0794 115.538 91.7168 113.51 91.7168C111.308 91.7168 109.396 90.9635 107.774 89.457C106.209 87.9506 105.224 85.9516 104.819 83.4601C101.98 86.3572 99.488 88.472 97.3442 89.8047C95.2583 91.0794 92.9406 91.7168 90.3912 91.7168ZM96.9096 86.3282C98.1843 86.3282 99.4011 86.0095 100.56 85.3722C101.777 84.7348 103.138 83.6918 104.645 82.2433L104.732 64.6L101.255 65.9037C98.3002 67.0046 96.0405 68.1345 94.4761 69.2933C92.9116 70.3942 91.8107 71.64 91.1734 73.0306C90.594 74.4212 90.3043 76.0146 90.3043 77.8108C90.3043 80.3023 90.9126 82.3592 92.1294 83.9816C93.4041 85.546 94.9975 86.3282 96.9096 86.3282ZM123.506 90.5V89.6309H123.593C125.679 89.6309 127.359 88.9935 128.634 87.7188C129.909 86.4441 130.546 84.7638 130.546 82.6779V54.1705C130.546 51.9687 130.083 50.2595 129.156 49.0427C128.286 47.8259 126.403 47.2175 123.506 47.2175V46.3484H132.111C135.066 46.3484 137.325 46.0297 138.89 45.3923C140.338 44.755 141.352 43.9728 141.932 43.0457H142.801L142.888 55.2135C144.394 52.2005 146.683 49.7669 149.754 47.9128C152.825 46.0587 156.069 45.1316 159.488 45.1316C163.37 45.1316 166.47 46.4063 168.788 48.9558C171.163 51.5052 172.351 54.8658 172.351 59.0376V82.6779C172.351 84.7638 172.988 86.4441 174.263 87.7188C175.538 88.9935 177.218 89.6309 179.304 89.6309H179.391V90.5H152.883V89.6309H152.97C155.056 89.6309 156.736 88.9935 158.011 87.7188C159.285 86.4441 159.923 84.7638 159.923 82.6779V58.1685C159.923 55.2714 159.343 52.9537 158.184 51.2155C157.083 49.4772 155.606 48.6081 153.752 48.6081C151.956 48.6081 150.073 49.3903 148.102 50.9548C146.19 52.4612 144.51 54.5182 143.062 57.1256V82.6779C143.062 84.7638 143.699 86.4441 144.974 87.7188C146.248 88.9935 147.929 89.6309 150.015 89.6309H150.101V90.5H123.506ZM206.92 91.8037L184.496 35.6581C182.005 29.3425 179.224 26.1847 176.153 26.1847H175.892V25.3155H203.443V26.1847H203.096C200.488 26.1847 198.75 26.9958 197.881 28.6182C197.012 30.1826 197.128 32.3555 198.229 35.1367L213.612 74.3343L222.738 51.737L217.002 35.6581C215.901 32.5293 214.568 30.1826 213.004 28.6182C211.497 26.9958 209.585 26.1847 207.268 26.1847H207.094V25.3155H234.993V26.1847H234.645C232.154 26.1847 230.531 26.9669 229.778 28.5313C229.025 30.0957 229.112 32.2975 230.039 35.1367L243.336 74.3343L258.198 35.2236C259.183 32.6162 259.068 30.5013 257.851 28.8789C256.692 27.1986 254.635 26.3005 251.68 26.1847V25.3155H267.585V26.1847C266.021 26.1847 264.543 26.9379 263.152 28.4444C261.82 29.9509 260.719 31.863 259.85 34.1806L237.687 91.8037H236.992L223.26 53.3883L207.702 91.8037H206.92ZM263.723 90.5V89.6309H263.81C265.896 89.6309 267.576 88.9935 268.851 87.7188C270.125 86.4441 270.763 84.7638 270.763 82.6779V54.1705C270.763 51.9687 270.299 50.2595 269.372 49.0427C268.503 47.8259 266.62 47.2175 263.723 47.2175V46.3484H272.588C275.543 46.3484 277.803 46.0297 279.367 45.3923C280.816 44.755 281.83 43.9728 282.409 43.0457H283.278V82.6779C283.278 84.7638 283.915 86.4441 285.19 87.7188C286.465 88.9935 288.145 89.6309 290.231 89.6309H290.318V90.5H263.723ZM276.933 37.5702C274.848 37.5702 273.109 36.9039 271.719 35.5712C270.386 34.1806 269.72 32.4424 269.72 30.3565C269.72 28.2706 270.386 26.5613 271.719 25.2286C273.109 23.838 274.848 23.1427 276.933 23.1427C278.961 23.1427 280.642 23.838 281.974 25.2286C283.365 26.6192 284.06 28.3285 284.06 30.3565C284.06 32.3844 283.365 34.0937 281.974 35.4843C280.642 36.8749 278.961 37.5702 276.933 37.5702ZM306.647 91.7168C305.14 91.7168 304.01 91.6588 303.257 91.543C302.504 91.4271 301.78 91.2822 301.084 91.1084C300.447 90.9346 299.578 90.7897 298.477 90.6738C297.376 90.5579 295.696 90.5 293.436 90.5L291.35 74.1604H292.48C293.407 79.607 295.145 83.7208 297.695 86.502C300.244 89.2253 303.025 90.5869 306.038 90.5869C308.993 90.5869 311.224 89.9785 312.731 88.7617C314.295 87.545 315.077 85.8936 315.077 83.8077C315.077 82.4751 314.73 81.3162 314.034 80.3312C313.397 79.2883 312.267 78.2453 310.645 77.2024C309.022 76.1015 306.821 74.7978 304.039 73.2913L301.519 71.9007C298.332 70.1045 295.956 68.0186 294.392 65.643C292.886 63.2094 292.132 60.6021 292.132 57.8209C292.132 53.8808 293.552 50.7809 296.391 48.5212C299.288 46.2615 303.141 45.1316 307.95 45.1316C309.167 45.1316 310.152 45.1896 310.905 45.3054C311.659 45.4213 312.383 45.5662 313.078 45.74C313.774 45.9138 314.643 46.0587 315.686 46.1746C316.729 46.2904 318.119 46.3484 319.857 46.3484L321.074 60.3413H320.031C319.684 57.6181 318.901 55.2135 317.685 53.1276C316.526 50.9837 315.135 49.3324 313.513 48.1736C311.89 46.9568 310.239 46.3484 308.559 46.3484C306.357 46.3484 304.59 46.9278 303.257 48.0866C301.982 49.2455 301.345 50.8678 301.345 52.9537C301.345 54.5182 301.838 55.9667 302.823 57.2994C303.866 58.5741 305.836 59.9647 308.733 61.4712L311.34 62.7749C315.396 64.8608 318.351 67.0336 320.205 69.2933C322.059 71.553 322.986 74.4501 322.986 77.9846C322.986 87.0235 317.54 91.6009 306.647 91.7168ZM347.604 91.543C343.606 91.543 340.043 90.5579 336.914 88.5879C333.843 86.6179 331.439 83.8946 329.7 80.4181C327.962 76.8837 327.093 72.8567 327.093 68.3373C327.093 63.7019 328.049 59.646 329.961 56.1695C331.873 52.693 334.481 49.9987 337.783 48.0866C341.144 46.1166 344.939 45.1316 349.169 45.1316C352.703 45.1316 355.832 45.8269 358.555 47.2175C361.337 48.6081 363.538 50.5781 365.161 53.1276C366.841 55.6191 367.797 58.5162 368.029 61.8188L368.116 63.1225H338.913V63.5571C338.913 69.6989 340.275 74.624 342.998 78.3322C345.721 81.9826 349.372 83.8077 353.949 83.8077C356.73 83.8077 359.366 83.1414 361.858 81.8087C364.407 80.4181 366.464 78.564 368.029 76.2463L368.811 76.5071C367.826 79.4621 366.291 82.0695 364.205 84.3292C362.119 86.5889 359.656 88.3562 356.817 89.6309C353.978 90.9056 350.907 91.543 347.604 91.543ZM339 61.8188H356.643C356.643 57.2414 355.89 53.5332 354.384 50.694C352.935 47.8549 350.878 46.4353 348.213 46.4353C345.663 46.4353 343.548 47.8259 341.868 50.6071C340.188 53.3883 339.232 57.1256 339 61.8188Z" fill="#1E1E1E"/>
</svg>
