<svg width="189" height="126" viewBox="0 0 189 126" fill="none" xmlns="http://www.w3.org/2000/svg">
<g opacity="0.5" filter="url(#filter0_d_597_12444)">
<path d="M23.2226 34.9539L19.6845 25.2331C19.0331 23.4436 19.9559 21.4648 21.7454 20.8135L47.6676 11.3785C49.4573 10.7272 51.4359 11.6499 52.0873 13.4394L55.6254 23.1603L68.5865 18.4428C70.3761 17.7915 72.3548 18.7142 73.0062 20.5037L89.5173 65.8677C90.1686 67.6573 89.246 69.6359 87.4564 70.2873L29.1313 91.5159C27.3418 92.1672 25.363 91.2446 24.7117 89.455L8.20054 44.0911C7.5492 42.3015 8.47191 40.3227 10.2615 39.6714L23.2226 34.9539ZM43.2599 49.6782L45.6186 56.1587L52.0992 53.8L49.7405 47.3194L43.2599 49.6782ZM27.3444 26.1146L29.7031 32.5952L49.1448 25.519L46.7861 19.0385L27.3444 26.1146Z" fill="#F5F5F5"/>
<path d="M23.2226 34.9539L19.6845 25.2331C19.0331 23.4436 19.9559 21.4648 21.7454 20.8135L47.6676 11.3785C49.4573 10.7272 51.4359 11.6499 52.0873 13.4394L55.6254 23.1603L68.5865 18.4428C70.3761 17.7915 72.3548 18.7142 73.0062 20.5037L89.5173 65.8677C90.1686 67.6573 89.246 69.6359 87.4564 70.2873L29.1313 91.5159C27.3418 92.1672 25.363 91.2446 24.7117 89.455L8.20054 44.0911C7.5492 42.3015 8.47191 40.3227 10.2615 39.6714L23.2226 34.9539ZM43.2599 49.6782L45.6186 56.1587L52.0992 53.8L49.7405 47.3194L43.2599 49.6782ZM27.3444 26.1146L29.7031 32.5952L49.1448 25.519L46.7861 19.0385L27.3444 26.1146Z" stroke="#E5E5E5" stroke-width="3"/>
</g>
<g opacity="0.5" filter="url(#filter1_d_597_12444)">
<path d="M133.375 23.5445L136.913 13.8236C137.564 12.0341 139.543 11.1114 141.332 11.7627L167.255 21.1976C169.044 21.849 169.967 23.8277 169.315 25.6173L165.777 35.3381L178.738 40.0556C180.528 40.707 181.451 42.6857 180.799 44.4752L164.288 89.8392C163.637 91.6288 161.658 92.5514 159.869 91.9001L101.544 70.6715C99.754 70.0202 98.8313 68.0415 99.4827 66.2519L115.994 20.8879C116.645 19.0984 118.624 18.1757 120.413 18.827L133.375 23.5445ZM139.259 47.7036L136.901 54.1842L143.381 56.5429L145.74 50.0624L139.259 47.7036ZM142.214 19.4226L139.855 25.9032L159.297 32.9794L161.656 26.4988L142.214 19.4226Z" fill="#F5F5F5"/>
<path d="M133.375 23.5445L136.913 13.8236C137.564 12.0341 139.543 11.1114 141.332 11.7627L167.255 21.1976C169.044 21.849 169.967 23.8277 169.315 25.6173L165.777 35.3381L178.738 40.0556C180.528 40.707 181.451 42.6857 180.799 44.4752L164.288 89.8392C163.637 91.6288 161.658 92.5514 159.869 91.9001L101.544 70.6715C99.754 70.0202 98.8313 68.0415 99.4827 66.2519L115.994 20.8879C116.645 19.0984 118.624 18.1757 120.413 18.827L133.375 23.5445ZM139.259 47.7036L136.901 54.1842L143.381 56.5429L145.74 50.0624L139.259 47.7036ZM142.214 19.4226L139.855 25.9032L159.297 32.9794L161.656 26.4988L142.214 19.4226Z" stroke="#E5E5E5" stroke-width="3"/>
</g>
<g filter="url(#filter2_d_597_12444)">
<path d="M64.9987 27.074V10.457C64.9987 7.39789 67.4786 4.91797 70.5377 4.91797H114.85C117.909 4.91797 120.389 7.39789 120.389 10.457V27.074H142.545C145.604 27.074 148.084 29.5539 148.084 32.613V110.159C148.084 113.218 145.604 115.698 142.545 115.698H42.8427C39.7836 115.698 37.3037 113.218 37.3037 110.159V32.613C37.3037 29.5539 39.7836 27.074 42.8427 27.074H64.9987ZM48.3817 82.464V104.62H137.006V82.464H48.3817ZM87.1547 60.308V71.386H98.2327V60.308H87.1547ZM76.0767 15.996V27.074H109.311V15.996H76.0767Z" fill="white"/>
<path d="M64.9987 27.074V10.457C64.9987 7.39789 67.4786 4.91797 70.5377 4.91797H114.85C117.909 4.91797 120.389 7.39789 120.389 10.457V27.074H142.545C145.604 27.074 148.084 29.5539 148.084 32.613V110.159C148.084 113.218 145.604 115.698 142.545 115.698H42.8427C39.7836 115.698 37.3037 113.218 37.3037 110.159V32.613C37.3037 29.5539 39.7836 27.074 42.8427 27.074H64.9987ZM48.3817 82.464V104.62H137.006V82.464H48.3817ZM87.1547 60.308V71.386H98.2327V60.308H87.1547ZM76.0767 15.996V27.074H109.311V15.996H76.0767Z" stroke="#E5E5E5" stroke-width="3"/>
</g>
<defs>
<filter id="filter0_d_597_12444" x="0.952309" y="6.89998" width="95.8132" height="94.6335" filterUnits="userSpaceOnUse" color-interpolation-filters="sRGB">
<feFlood flood-opacity="0" result="BackgroundImageFix"/>
<feColorMatrix in="SourceAlpha" type="matrix" values="0 0 0 0 0 0 0 0 0 0 0 0 0 0 0 0 0 0 127 0" result="hardAlpha"/>
<feOffset dy="2.76945"/>
<feGaussianBlur stdDeviation="2.76945"/>
<feComposite in2="hardAlpha" operator="out"/>
<feColorMatrix type="matrix" values="0 0 0 0 0.0784314 0 0 0 0 0.0784314 0 0 0 0 0.168627 0 0 0 0.04 0"/>
<feBlend mode="normal" in2="BackgroundImageFix" result="effect1_dropShadow_597_12444"/>
<feBlend mode="normal" in="SourceGraphic" in2="effect1_dropShadow_597_12444" result="shape"/>
</filter>
<filter id="filter1_d_597_12444" x="92.2345" y="7.28377" width="95.8132" height="94.634" filterUnits="userSpaceOnUse" color-interpolation-filters="sRGB">
<feFlood flood-opacity="0" result="BackgroundImageFix"/>
<feColorMatrix in="SourceAlpha" type="matrix" values="0 0 0 0 0 0 0 0 0 0 0 0 0 0 0 0 0 0 127 0" result="hardAlpha"/>
<feOffset dy="2.76945"/>
<feGaussianBlur stdDeviation="2.76945"/>
<feComposite in2="hardAlpha" operator="out"/>
<feColorMatrix type="matrix" values="0 0 0 0 0.0784314 0 0 0 0 0.0784314 0 0 0 0 0.168627 0 0 0 0.04 0"/>
<feBlend mode="normal" in2="BackgroundImageFix" result="effect1_dropShadow_597_12444"/>
<feBlend mode="normal" in="SourceGraphic" in2="effect1_dropShadow_597_12444" result="shape"/>
</filter>
<filter id="filter2_d_597_12444" x="30.2648" y="0.648518" width="124.858" height="124.858" filterUnits="userSpaceOnUse" color-interpolation-filters="sRGB">
<feFlood flood-opacity="0" result="BackgroundImageFix"/>
<feColorMatrix in="SourceAlpha" type="matrix" values="0 0 0 0 0 0 0 0 0 0 0 0 0 0 0 0 0 0 127 0" result="hardAlpha"/>
<feOffset dy="2.76945"/>
<feGaussianBlur stdDeviation="2.76945"/>
<feComposite in2="hardAlpha" operator="out"/>
<feColorMatrix type="matrix" values="0 0 0 0 0.0784314 0 0 0 0 0.0784314 0 0 0 0 0.168627 0 0 0 0.04 0"/>
<feBlend mode="normal" in2="BackgroundImageFix" result="effect1_dropShadow_597_12444"/>
<feBlend mode="normal" in="SourceGraphic" in2="effect1_dropShadow_597_12444" result="shape"/>
</filter>
</defs>
</svg>
