<svg width="145" height="126" viewBox="0 0 145 126" fill="none" xmlns="http://www.w3.org/2000/svg">
<g opacity="0.8" filter="url(#filter0_d_599_45300)">
<path d="M69.7381 30.3491C72.4345 23.3072 73.7827 19.7863 76.183 17.6215C78.2944 15.7172 80.9545 14.5302 83.7819 14.2307C86.9963 13.8901 90.5172 15.2383 97.559 17.9347L111.02 23.0891C114.096 24.2667 115.633 24.8555 116.947 25.757C118.112 26.5563 119.144 27.534 120.005 28.6541C120.976 29.9176 121.647 31.4212 122.989 34.4285L131.235 52.9075C132.577 55.9148 133.248 57.4185 133.54 58.9851C133.798 60.3741 133.837 61.7951 133.653 63.196C133.447 64.7761 132.858 66.3137 131.68 69.3891L120.106 99.6149C117.41 106.657 116.062 110.178 113.662 112.343C111.55 114.247 108.89 115.434 106.063 115.733C102.848 116.074 99.3274 114.726 92.2856 112.029L65.462 101.758C58.4202 99.0618 54.8993 97.7136 52.7344 95.3133C50.8301 93.2019 49.6432 90.5419 49.3436 87.7144C49.0031 84.5 50.3513 80.9791 53.0477 73.9373L69.7381 30.3491Z" fill="#F5F5F5"/>
<path d="M118.921 27.4093L112.292 44.7211C111.393 47.0684 110.944 48.242 111.057 49.3135C111.157 50.256 111.553 51.1427 112.187 51.8465C112.909 52.6466 114.083 53.096 116.43 53.9948L133.742 60.6237M131.68 69.3891L120.106 99.6149C117.41 106.657 116.062 110.178 113.662 112.343C111.55 114.247 108.89 115.434 106.063 115.733C102.848 116.074 99.3274 114.726 92.2856 112.029L65.462 101.758C58.4202 99.0618 54.8993 97.7136 52.7344 95.3133C50.8301 93.2019 49.6432 90.5419 49.3436 87.7144C49.0031 84.5 50.3513 80.9791 53.0477 73.9373L69.7381 30.3491C72.4345 23.3072 73.7827 19.7863 76.183 17.6215C78.2944 15.7172 80.9545 14.5302 83.7819 14.2307C86.9963 13.8901 90.5172 15.2383 97.559 17.9347L111.02 23.0891C114.096 24.2667 115.633 24.8555 116.947 25.757C118.112 26.5563 119.144 27.534 120.005 28.6541C120.976 29.9176 121.647 31.4212 122.989 34.4285L131.235 52.9075C132.577 55.9148 133.248 57.4185 133.54 58.9851C133.798 60.3741 133.837 61.7951 133.653 63.196C133.447 64.7761 132.858 66.3137 131.68 69.3891Z" stroke="#E5E5E5" stroke-width="2.30383" stroke-linecap="round" stroke-linejoin="round"/>
</g>
<g opacity="0.5" filter="url(#filter1_d_599_45300)">
<path d="M10.8676 55.0818C8.28859 47.9961 6.99911 44.4533 7.39303 41.245C7.73954 38.4229 8.97056 35.783 10.9097 33.7035C13.1141 31.3395 16.657 30.05 23.7427 27.4711L37.2876 22.5411C40.3821 21.4148 41.9294 20.8516 43.5127 20.6712C44.9164 20.5113 46.3366 20.5733 47.7211 20.855C49.2826 21.1727 50.7749 21.8685 53.7595 23.2603L72.0989 31.8121C75.0835 33.2038 76.5758 33.8997 77.8229 34.8917C78.9286 35.7712 79.8889 36.8193 80.6687 37.9974C81.5483 39.3262 82.1114 40.8735 83.2377 43.968L94.3075 74.382C96.8865 81.4677 98.176 85.0105 97.7821 88.2188C97.4356 91.0409 96.2045 93.6808 94.2654 95.7603C92.061 98.1243 88.5181 99.4138 81.4324 101.993L54.4419 111.816C47.3562 114.395 43.8134 115.685 40.6051 115.291C37.783 114.945 35.1431 113.713 33.0636 111.774C30.6996 109.57 29.4101 106.027 26.8312 98.9414L10.8676 55.0818Z" fill="#F5F5F5"/>
<path d="M46.0861 20.6256L52.4263 38.0453C53.286 40.4071 53.7158 41.5881 54.5038 42.3229C55.1969 42.9693 56.0769 43.3796 57.0176 43.4951C58.087 43.6264 59.268 43.1966 61.6299 42.3369L79.0495 35.9967M83.2377 43.968L94.3075 74.382C96.8865 81.4677 98.176 85.0105 97.7821 88.2188C97.4356 91.0409 96.2045 93.6808 94.2654 95.7603C92.061 98.1243 88.5181 99.4138 81.4324 101.993L54.4419 111.816C47.3562 114.395 43.8134 115.685 40.6051 115.291C37.783 114.945 35.1431 113.713 33.0636 111.774C30.6996 109.57 29.4101 106.027 26.8312 98.9414L10.8676 55.0818C8.28859 47.9961 6.99911 44.4533 7.39303 41.245C7.73954 38.4229 8.97056 35.783 10.9097 33.7035C13.1141 31.3395 16.657 30.05 23.7427 27.4711L37.2876 22.5411C40.3821 21.4148 41.9294 20.8516 43.5127 20.6712C44.9164 20.5113 46.3366 20.5733 47.7211 20.855C49.2826 21.1727 50.7749 21.8685 53.7595 23.2603L72.0989 31.8121C75.0835 33.2038 76.5758 33.8997 77.8229 34.8917C78.9286 35.7712 79.8889 36.8193 80.6687 37.9974C81.5483 39.3262 82.1114 40.8735 83.2377 43.968Z" stroke="#E5E5E5" stroke-width="2.30383" stroke-linecap="round" stroke-linejoin="round"/>
</g>
<g filter="url(#filter2_d_599_45300)">
<path d="M28.7271 31.2791C28.7271 21.9729 28.7271 17.3198 30.5382 13.7653C32.1313 10.6386 34.6733 8.0966 37.7999 6.5035C41.3544 4.69238 46.0076 4.69238 55.3138 4.69238H73.1035C77.1678 4.69238 79.1999 4.69238 81.1123 5.1515C82.8078 5.55856 84.4287 6.22995 85.9154 7.14102C87.5923 8.16862 89.0293 9.60557 91.9031 12.4795L109.562 30.1387C112.436 33.0126 113.873 34.4496 114.901 36.1265C115.812 37.6132 116.483 39.2341 116.89 40.9296C117.349 42.8419 117.349 44.8741 117.349 48.9384V88.8837C117.349 98.1899 117.349 102.843 115.538 106.398C113.945 109.524 111.403 112.066 108.277 113.659C104.722 115.47 100.069 115.47 90.7628 115.47H55.3138C46.0076 115.47 41.3544 115.47 37.7999 113.659C34.6733 112.066 32.1313 109.524 30.5382 106.398C28.7271 102.843 28.7271 98.1899 28.7271 88.8837V31.2791Z" fill="white"/>
<path d="M84.1161 6.1849V29.0636C84.1161 32.1656 84.1161 33.7167 84.7198 34.9015C85.2508 35.9437 86.0982 36.7911 87.1404 37.3221C88.3252 37.9258 89.8762 37.9258 92.9783 37.9258H115.857M117.349 48.9384V88.8837C117.349 98.1899 117.349 102.843 115.538 106.398C113.945 109.524 111.403 112.066 108.277 113.659C104.722 115.47 100.069 115.47 90.7628 115.47H55.3138C46.0076 115.47 41.3544 115.47 37.7999 113.659C34.6733 112.066 32.1313 109.524 30.5382 106.398C28.7271 102.843 28.7271 98.1899 28.7271 88.8837V31.2791C28.7271 21.9729 28.7271 17.3198 30.5382 13.7653C32.1313 10.6386 34.6733 8.0966 37.7999 6.5035C41.3544 4.69238 46.0076 4.69238 55.3138 4.69238H73.1035C77.1678 4.69238 79.1999 4.69238 81.1123 5.1515C82.8078 5.55856 84.4287 6.22995 85.9154 7.14102C87.5923 8.16862 89.0293 9.60557 91.9031 12.4795L109.562 30.1387C112.436 33.0126 113.873 34.4496 114.901 36.1265C115.812 37.6132 116.483 39.2341 116.89 40.9296C117.349 42.8419 117.349 44.8741 117.349 48.9384Z" stroke="#E5E5E5" stroke-width="2.30383" stroke-linecap="round" stroke-linejoin="round"/>
</g>
<defs>
<filter id="filter0_d_599_45300" x="42.601" y="10.2579" width="97.8569" height="114.988" filterUnits="userSpaceOnUse" color-interpolation-filters="sRGB">
<feFlood flood-opacity="0" result="BackgroundImageFix"/>
<feColorMatrix in="SourceAlpha" type="matrix" values="0 0 0 0 0 0 0 0 0 0 0 0 0 0 0 0 0 0 127 0" result="hardAlpha"/>
<feOffset dy="2.76945"/>
<feGaussianBlur stdDeviation="2.76945"/>
<feComposite in2="hardAlpha" operator="out"/>
<feColorMatrix type="matrix" values="0 0 0 0 0.0784314 0 0 0 0 0.0784314 0 0 0 0 0.168627 0 0 0 0.04 0"/>
<feBlend mode="normal" in2="BackgroundImageFix" result="effect1_dropShadow_599_45300"/>
<feBlend mode="normal" in="SourceGraphic" in2="effect1_dropShadow_599_45300" result="shape"/>
</filter>
<filter id="filter1_d_599_45300" x="0.632484" y="16.6632" width="103.91" height="108.158" filterUnits="userSpaceOnUse" color-interpolation-filters="sRGB">
<feFlood flood-opacity="0" result="BackgroundImageFix"/>
<feColorMatrix in="SourceAlpha" type="matrix" values="0 0 0 0 0 0 0 0 0 0 0 0 0 0 0 0 0 0 127 0" result="hardAlpha"/>
<feOffset dy="2.76945"/>
<feGaussianBlur stdDeviation="2.76945"/>
<feComposite in2="hardAlpha" operator="out"/>
<feColorMatrix type="matrix" values="0 0 0 0 0.0784314 0 0 0 0 0.0784314 0 0 0 0 0.168627 0 0 0 0.04 0"/>
<feBlend mode="normal" in2="BackgroundImageFix" result="effect1_dropShadow_599_45300"/>
<feBlend mode="normal" in="SourceGraphic" in2="effect1_dropShadow_599_45300" result="shape"/>
</filter>
<filter id="filter2_d_599_45300" x="22.0363" y="0.770588" width="102.004" height="124.16" filterUnits="userSpaceOnUse" color-interpolation-filters="sRGB">
<feFlood flood-opacity="0" result="BackgroundImageFix"/>
<feColorMatrix in="SourceAlpha" type="matrix" values="0 0 0 0 0 0 0 0 0 0 0 0 0 0 0 0 0 0 127 0" result="hardAlpha"/>
<feOffset dy="2.76945"/>
<feGaussianBlur stdDeviation="2.76945"/>
<feComposite in2="hardAlpha" operator="out"/>
<feColorMatrix type="matrix" values="0 0 0 0 0.0784314 0 0 0 0 0.0784314 0 0 0 0 0.168627 0 0 0 0.04 0"/>
<feBlend mode="normal" in2="BackgroundImageFix" result="effect1_dropShadow_599_45300"/>
<feBlend mode="normal" in="SourceGraphic" in2="effect1_dropShadow_599_45300" result="shape"/>
</filter>
</defs>
</svg>
